<?xml version="1.0" encoding="UTF-8" standalone="no"?>
<!DOCTYPE svg PUBLIC "-//W3C//DTD SVG 1.1//EN" "http://www.w3.org/Graphics/SVG/1.1/DTD/svg11.dtd">
<svg width="100%" height="100%" viewBox="0 0 86 86" version="1.1" xmlns="http://www.w3.org/2000/svg" xmlns:xlink="http://www.w3.org/1999/xlink" xml:space="preserve" xmlns:serif="http://www.serif.com/" style="fill-rule:evenodd;clip-rule:evenodd;stroke-linejoin:round;stroke-miterlimit:1.41421;">
    <path d="M84.277,0.3L43,0.3C19.417,0.3 0.3,19.418 0.3,43L0.3,84.277C0.3,85.063 0.937,85.7 1.723,85.7L43,85.7C66.583,85.7 85.7,66.582 85.7,43L85.7,1.723C85.7,0.937 85.063,0.3 84.277,0.3Z" style="fill:url(#_Linear1);fill-rule:nonzero;"/>
    <g>
        <g transform="matrix(0.166666,6.25009e-19,-2.23321e-19,0.282353,69.5,30.7176)">
            <rect x="39" y="1" width="6" height="85" style="fill:url(#_Radial2);"/>
        </g>
        <g transform="matrix(0.166666,6.25009e-19,-2.23321e-19,0.282353,49.5,30.7176)">
            <rect x="39" y="1" width="6" height="85" style="fill:url(#_Radial3);"/>
        </g>
        <g transform="matrix(0.166666,6.25009e-19,-2.23321e-19,0.282353,22.5,30.7176)">
            <rect x="39" y="1" width="6" height="85" style="fill:url(#_Radial4);"/>
        </g>
        <g transform="matrix(0.166666,6.25009e-19,-2.23321e-19,0.282353,2.5,30.7176)">
            <rect x="39" y="1" width="6" height="85" style="fill:url(#_Radial5);"/>
        </g>
        <g transform="matrix(0.166666,6.25009e-19,-1.1166e-19,0.141176,-1.5,36.8588)">
            <rect x="39" y="1" width="6" height="85" style="fill:url(#_Radial6);"/>
        </g>
        <g transform="matrix(0.166666,6.25009e-19,-1.1166e-19,0.141176,6.5,36.8588)">
            <rect x="39" y="1" width="6" height="85" style="fill:url(#_Radial7);"/>
        </g>
        <g transform="matrix(0.166666,6.25009e-19,-1.1166e-19,0.141176,10.5,36.8588)">
            <rect x="39" y="1" width="6" height="85" style="fill:url(#_Radial8);"/>
        </g>
        <g transform="matrix(0.166666,6.25009e-19,-1.1166e-19,0.141176,14.5,36.8588)">
            <rect x="39" y="1" width="6" height="85" style="fill:url(#_Radial9);"/>
        </g>
        <g transform="matrix(0.166666,6.25009e-19,-1.1166e-19,0.141176,18.5,36.8588)">
            <rect x="39" y="1" width="6" height="85" style="fill:url(#_Radial10);"/>
        </g>
        <g transform="matrix(0.166666,6.25009e-19,-1.1166e-19,0.141176,26.5,36.8588)">
            <rect x="39" y="1" width="6" height="85" style="fill:url(#_Radial11);"/>
        </g>
        <g transform="matrix(0.166666,6.25009e-19,-1.1166e-19,0.141176,30.5,36.8588)">
            <rect x="39" y="1" width="6" height="85" style="fill:url(#_Radial12);"/>
        </g>
        <g transform="matrix(0.166666,6.25009e-19,-1.1166e-19,0.141176,45.5,36.8588)">
            <rect x="39" y="1" width="6" height="85" style="fill:url(#_Radial13);"/>
        </g>
        <g transform="matrix(0.166666,6.25009e-19,-1.1166e-19,0.141176,41.5,36.8588)">
            <rect x="39" y="1" width="6" height="85" style="fill:url(#_Radial14);"/>
        </g>
        <g transform="matrix(0.166666,6.25009e-19,-1.1166e-19,0.141176,53.5,36.8588)">
            <rect x="39" y="1" width="6" height="85" style="fill:url(#_Radial15);"/>
        </g>
        <g transform="matrix(0.166666,6.25009e-19,-1.1166e-19,0.141176,57.5,36.8588)">
            <rect x="39" y="1" width="6" height="85" style="fill:url(#_Radial16);"/>
        </g>
        <g transform="matrix(0.166666,6.25009e-19,-1.1166e-19,0.141176,61.5,36.8588)">
            <rect x="39" y="1" width="6" height="85" style="fill:url(#_Radial17);"/>
        </g>
        <g transform="matrix(0.166666,6.25009e-19,-1.1166e-19,0.141176,65.5,36.8588)">
            <rect x="39" y="1" width="6" height="85" style="fill:url(#_Radial18);"/>
        </g>
        <g transform="matrix(0.166666,6.25009e-19,-1.1166e-19,0.141176,73.5,36.8588)">
            <rect x="39" y="1" width="6" height="85" style="fill:url(#_Radial19);"/>
        </g>
    </g>
    <g transform="matrix(0.499999,0,0,0.965517,21.5,1)">
        <g transform="matrix(1.33333,5.00009e-18,-4.09421e-19,0.517647,-13,42.4824)">
            <rect x="39" y="1" width="6" height="85" style="fill:rgb(199,159,29);"/>
        </g>
        <g transform="matrix(1.33333,5.00009e-18,-4.10495e-19,0.519004,-13,-0.519004)">
            <rect x="39" y="1" width="6" height="85" style="fill:rgb(209,169,37);"/>
        </g>
    </g>
    <defs>
        <linearGradient id="_Linear1" x1="0" y1="0" x2="1" y2="0" gradientUnits="userSpaceOnUse" gradientTransform="matrix(84.5662,-84.5662,84.5662,84.5662,0.7169,85.2831)"><stop offset="0" style="stop-color:rgb(16,81,146);stop-opacity:1"/><stop offset="1" style="stop-color:rgb(50,135,214);stop-opacity:1"/></linearGradient>
        <radialGradient id="_Radial2" cx="0" cy="0" r="1" gradientUnits="userSpaceOnUse" gradientTransform="matrix(76,-1.68232e-16,6.01106e-17,44.861,4.99999,43)"><stop offset="0" style="stop-color:rgb(153,153,153);stop-opacity:1"/><stop offset="1" style="stop-color:white;stop-opacity:1"/></radialGradient>
        <radialGradient id="_Radial3" cx="0" cy="0" r="1" gradientUnits="userSpaceOnUse" gradientTransform="matrix(76,-1.68232e-16,6.01106e-17,44.861,4.99999,43)"><stop offset="0" style="stop-color:rgb(153,153,153);stop-opacity:1"/><stop offset="1" style="stop-color:white;stop-opacity:1"/></radialGradient>
        <radialGradient id="_Radial4" cx="0" cy="0" r="1" gradientUnits="userSpaceOnUse" gradientTransform="matrix(76,-1.68232e-16,6.01106e-17,44.861,4.99999,43)"><stop offset="0" style="stop-color:rgb(153,153,153);stop-opacity:1"/><stop offset="1" style="stop-color:white;stop-opacity:1"/></radialGradient>
        <radialGradient id="_Radial5" cx="0" cy="0" r="1" gradientUnits="userSpaceOnUse" gradientTransform="matrix(76,-1.68232e-16,6.01106e-17,44.861,4.99999,43)"><stop offset="0" style="stop-color:rgb(153,153,153);stop-opacity:1"/><stop offset="1" style="stop-color:white;stop-opacity:1"/></radialGradient>
        <radialGradient id="_Radial6" cx="0" cy="0" r="1" gradientUnits="userSpaceOnUse" gradientTransform="matrix(76,-3.36464e-16,6.01105e-17,89.7223,4.99999,43)"><stop offset="0" style="stop-color:rgb(153,153,153);stop-opacity:1"/><stop offset="1" style="stop-color:white;stop-opacity:1"/></radialGradient>
        <radialGradient id="_Radial7" cx="0" cy="0" r="1" gradientUnits="userSpaceOnUse" gradientTransform="matrix(76,-3.36464e-16,6.01105e-17,89.7223,4.99999,43)"><stop offset="0" style="stop-color:rgb(153,153,153);stop-opacity:1"/><stop offset="1" style="stop-color:white;stop-opacity:1"/></radialGradient>
        <radialGradient id="_Radial8" cx="0" cy="0" r="1" gradientUnits="userSpaceOnUse" gradientTransform="matrix(76,-3.36464e-16,6.01105e-17,89.7223,4.99999,43)"><stop offset="0" style="stop-color:rgb(153,153,153);stop-opacity:1"/><stop offset="1" style="stop-color:white;stop-opacity:1"/></radialGradient>
        <radialGradient id="_Radial9" cx="0" cy="0" r="1" gradientUnits="userSpaceOnUse" gradientTransform="matrix(76,-3.36464e-16,6.01105e-17,89.7223,4.99999,43)"><stop offset="0" style="stop-color:rgb(153,153,153);stop-opacity:1"/><stop offset="1" style="stop-color:white;stop-opacity:1"/></radialGradient>
        <radialGradient id="_Radial10" cx="0" cy="0" r="1" gradientUnits="userSpaceOnUse" gradientTransform="matrix(76,-3.36464e-16,6.01105e-17,89.7223,4.99999,43)"><stop offset="0" style="stop-color:rgb(153,153,153);stop-opacity:1"/><stop offset="1" style="stop-color:white;stop-opacity:1"/></radialGradient>
        <radialGradient id="_Radial11" cx="0" cy="0" r="1" gradientUnits="userSpaceOnUse" gradientTransform="matrix(76,-3.36464e-16,6.01105e-17,89.7223,4.99999,43)"><stop offset="0" style="stop-color:rgb(153,153,153);stop-opacity:1"/><stop offset="1" style="stop-color:white;stop-opacity:1"/></radialGradient>
        <radialGradient id="_Radial12" cx="0" cy="0" r="1" gradientUnits="userSpaceOnUse" gradientTransform="matrix(76,-3.36464e-16,6.01105e-17,89.7223,4.99999,43)"><stop offset="0" style="stop-color:rgb(153,153,153);stop-opacity:1"/><stop offset="1" style="stop-color:white;stop-opacity:1"/></radialGradient>
        <radialGradient id="_Radial13" cx="0" cy="0" r="1" gradientUnits="userSpaceOnUse" gradientTransform="matrix(76,-3.36464e-16,6.01105e-17,89.7223,4.99999,43)"><stop offset="0" style="stop-color:rgb(153,153,153);stop-opacity:1"/><stop offset="1" style="stop-color:white;stop-opacity:1"/></radialGradient>
        <radialGradient id="_Radial14" cx="0" cy="0" r="1" gradientUnits="userSpaceOnUse" gradientTransform="matrix(76,-3.36464e-16,6.01105e-17,89.7223,4.99999,43)"><stop offset="0" style="stop-color:rgb(153,153,153);stop-opacity:1"/><stop offset="1" style="stop-color:white;stop-opacity:1"/></radialGradient>
        <radialGradient id="_Radial15" cx="0" cy="0" r="1" gradientUnits="userSpaceOnUse" gradientTransform="matrix(76,-3.36464e-16,6.01105e-17,89.7223,4.99999,43)"><stop offset="0" style="stop-color:rgb(153,153,153);stop-opacity:1"/><stop offset="1" style="stop-color:white;stop-opacity:1"/></radialGradient>
        <radialGradient id="_Radial16" cx="0" cy="0" r="1" gradientUnits="userSpaceOnUse" gradientTransform="matrix(76,-3.36464e-16,6.01105e-17,89.7223,4.99999,43)"><stop offset="0" style="stop-color:rgb(153,153,153);stop-opacity:1"/><stop offset="1" style="stop-color:white;stop-opacity:1"/></radialGradient>
        <radialGradient id="_Radial17" cx="0" cy="0" r="1" gradientUnits="userSpaceOnUse" gradientTransform="matrix(76,-3.36464e-16,6.01105e-17,89.7223,4.99999,43)"><stop offset="0" style="stop-color:rgb(153,153,153);stop-opacity:1"/><stop offset="1" style="stop-color:white;stop-opacity:1"/></radialGradient>
        <radialGradient id="_Radial18" cx="0" cy="0" r="1" gradientUnits="userSpaceOnUse" gradientTransform="matrix(76,-3.36464e-16,6.01105e-17,89.7223,4.99999,43)"><stop offset="0" style="stop-color:rgb(153,153,153);stop-opacity:1"/><stop offset="1" style="stop-color:white;stop-opacity:1"/></radialGradient>
        <radialGradient id="_Radial19" cx="0" cy="0" r="1" gradientUnits="userSpaceOnUse" gradientTransform="matrix(76,-3.36464e-16,6.01105e-17,89.7223,4.99999,43)"><stop offset="0" style="stop-color:rgb(153,153,153);stop-opacity:1"/><stop offset="1" style="stop-color:white;stop-opacity:1"/></radialGradient>
    </defs>
</svg>
